<?xml version="1.0" encoding="utf-8"?>
<!-- Generator: Adobe Illustrator 23.0.6, SVG Export Plug-In . SVG Version: 6.00 Build 0)  -->
<svg version="1.1" id="Laag_1" xmlns="http://www.w3.org/2000/svg" xmlns:xlink="http://www.w3.org/1999/xlink" x="0px" y="0px"
	 viewBox="0 0 512 512" style="enable-background:new 0 0 512 512;" xml:space="preserve">
<style type="text/css">
	.st0{fill:#667EEA;}
</style>
<title>Tekengebied 1</title>
<path class="st0" d="M20.9,405.9l-1.8-35l64.6-3.7c16.6,0,31.4-5.5,44.3-16.6c9.2-12.9,14.8-29.5,12.9-46.1V286h-5.5
	c-1.8,11.1-7.4,18.4-16.6,24c-11.1,5.5-24,9.2-36.9,9.2c-22.1,1.8-44.3-9.2-59-25.8C9.8,271.2,2.4,243.6,4.3,217.7
	c-1.8-27.7,5.5-53.5,20.3-77.5c12.9-18.4,35-27.7,59-27.7c31.4,0,49.8,12.9,51.6,40.6h3.7l3.7-36.9h36.9v180.8
	c1.8,27.7-5.5,55.3-24,77.5c-20.3,18.4-48,27.7-77.5,27.7L20.9,405.9z M43,217.7C43,262,57.8,286,89.1,286
	c33.2,0,49.8-11.1,49.8-33.2v-48c0-38.7-16.6-57.2-49.8-57.2c-12.9,0-27.7,5.5-33.2,18.4C46.7,180.9,43,199.3,43,217.7z"/>
<path class="st0" d="M244.1,405.9l-1.8-35l64.6-3.7c16.6,0,31.4-5.5,44.3-16.6c9.2-12.9,14.8-29.5,12.9-46.1V286h-3.7
	c0,11.1-7.4,20.3-16.6,25.8c-11.1,5.5-24,9.2-36.9,9.2c-22.1,1.8-44.3-9.2-59-25.8c-14.8-22.1-22.1-49.8-20.3-75.6
	c-1.8-27.7,5.5-55.3,20.3-77.5c12.9-18.4,35-27.7,59-27.7c31.4,0,49.8,12.9,51.6,40.6h3.7l5.5-36.9h36.9v180.8
	c1.8,27.7-5.5,55.3-24,77.5c-22.1,18.4-48,27.7-77.5,27.7L244.1,405.9z M268,217.7c0,44.3,14.8,68.2,46.1,68.2
	c33.2,0,49.8-11.1,49.8-33.2v-48c0-38.7-16.6-57.2-49.8-57.2c-12.9,0-27.7,5.5-33.2,18.4C271.7,180.9,266.2,199.3,268,217.7z"/>
<path class="st0" d="M482,319.2c-14.8,0-27.7-12.9-27.7-27.7c0-7.4,3.7-14.8,7.4-20.3c5.5-5.5,12.9-7.4,18.4-7.4
	c14.8,0,27.7,11.1,27.7,27.7l0,0C509.7,306.3,496.8,319.2,482,319.2L482,319.2L482,319.2z"/>
</svg>
