<?xml version="1.0" standalone="no"?>
<!DOCTYPE svg PUBLIC "-//W3C//DTD SVG 20010904//EN"
 "http://www.w3.org/TR/2001/REC-SVG-20010904/DTD/svg10.dtd">
<svg version="1.0" xmlns="http://www.w3.org/2000/svg"
 width="896.000000pt" height="896.000000pt" viewBox="0 0 896.000000 896.000000"
 preserveAspectRatio="xMidYMid meet">
<metadata>
Created by potrace 1.11, written by Peter Selinger 2001-2013
</metadata>
<g transform="translate(0.000000,896.000000) scale(0.100000,-0.100000)"
fill="#000000" stroke="none">
<path d="M5209 6936 c-2 -2 -31 -6 -64 -10 -111 -12 -250 -54 -374 -114 -31
-15 -62 -33 -69 -39 -7 -7 -17 -13 -22 -13 -4 0 -44 -26 -87 -58 -122 -91
-232 -211 -302 -333 -59 -101 -157 -305 -166 -347 -2 -9 -15 -48 -29 -87 -25
-71 -58 -197 -71 -270 -4 -22 -9 -50 -11 -62 -33 -175 -39 -784 -10 -929 2
-12 7 -39 10 -60 6 -36 9 -56 21 -109 2 -11 13 -55 25 -98 22 -83 37 -126 79
-229 26 -62 105 -222 127 -253 13 -20 24 -38 24 -41 0 -16 75 -109 145 -180
75 -76 162 -147 230 -186 101 -59 281 -132 355 -144 14 -2 48 -10 75 -16 55
-13 379 -17 460 -5 79 11 97 14 140 25 22 6 56 15 75 20 47 12 175 67 227 97
60 36 146 118 182 174 38 58 77 152 85 203 3 21 7 43 8 50 3 14 36 27 53 21
19 -6 10 -542 -10 -633 -51 -219 -138 -402 -240 -503 -76 -75 -268 -195 -340
-212 -5 -1 -17 -5 -25 -8 -18 -7 -123 -34 -165 -42 -36 -6 -142 -13 -335 -20
-80 -3 -181 -8 -225 -10 -44 -2 -141 -7 -215 -10 -74 -3 -178 -8 -230 -11 -52
-2 -139 -6 -194 -8 -67 -3 -101 -8 -107 -17 -4 -7 -6 -16 -4 -19 4 -7 7 -47
21 -335 4 -71 8 -148 9 -170 2 -22 3 -48 4 -58 1 -17 13 -18 194 -12 282 10
375 12 657 19 283 7 440 14 485 21 59 10 91 15 129 21 22 3 50 10 63 15 13 5
23 6 23 4 0 -2 12 0 28 6 15 6 36 13 47 14 59 9 312 117 424 181 48 27 160
102 192 127 15 12 41 33 59 47 17 14 37 30 44 35 19 15 126 163 126 174 0 5 4
11 8 13 28 12 198 370 217 458 2 8 12 51 24 95 21 83 31 133 36 175 6 52 17
115 21 122 3 5 0 8 -6 8 -7 0 -8 5 -3 13 8 13 11 347 3 347 -3 0 -4 24 -2 52
1 29 2 63 2 76 0 25 0 46 1 65 0 15 0 75 -1 102 -1 11 -1 26 -1 33 1 6 1 18 2
25 0 15 0 75 -1 102 -1 11 -1 26 -1 33 1 6 1 18 2 25 0 15 0 75 -1 102 -1 11
-1 27 -1 35 3 83 1 141 -4 150 -3 5 -3 10 2 10 9 0 9 180 0 203 -3 7 -2 20 3
27 4 7 4 26 0 41 -5 16 -6 29 -2 29 8 0 7 134 -1 147 -3 5 -2 15 3 22 4 8 4
27 0 42 -5 16 -6 29 -2 29 8 0 7 134 -1 147 -3 5 -2 15 3 22 4 8 4 27 0 42 -5
16 -6 29 -2 29 4 0 6 33 4 72 -2 70 -3 83 -1 111 0 6 0 26 0 42 -1 17 -1 38
-1 48 0 9 0 25 0 35 0 9 0 28 0 42 0 14 -1 34 -4 45 -2 11 0 29 4 40 4 11 4
29 0 41 -5 11 -5 27 0 34 4 7 4 24 0 39 -4 14 -4 35 0 46 4 11 4 29 0 41 -5
11 -5 27 0 34 4 7 4 24 0 39 -4 14 -4 35 0 46 4 11 4 29 0 41 -5 11 -5 27 0
34 4 7 4 24 0 39 -4 14 -4 35 0 46 4 11 4 29 0 41 -5 11 -5 27 0 34 4 7 4 24
0 39 -4 14 -4 35 0 46 4 11 4 29 0 41 -5 11 -5 27 0 34 4 7 4 24 0 39 -4 14
-4 35 0 46 4 11 4 29 0 41 -5 11 -5 27 0 34 4 7 4 24 0 39 -4 14 -4 35 0 46 4
11 4 29 0 41 -5 11 -4 27 1 36 6 11 5 19 -3 25 -14 8 -638 11 -639 3 0 -3 -2
-30 -4 -60 -2 -30 -6 -82 -9 -115 -4 -33 -8 -85 -11 -115 -2 -30 -7 -86 -11
-125 -6 -71 -11 -132 -13 -172 -1 -20 -7 -23 -41 -23 -37 0 -40 2 -41 28 -3
48 -6 66 -33 147 -111 341 -374 499 -852 511 -94 2 -173 2 -175 0z m356 -601
c108 -7 127 -9 185 -25 242 -62 407 -204 500 -427 16 -39 31 -80 33 -90 2 -10
9 -36 15 -58 6 -22 13 -58 17 -80 3 -22 9 -65 14 -95 5 -30 9 -293 9 -585 0
-577 0 -578 -58 -699 -69 -143 -237 -253 -445 -290 -16 -3 -41 -8 -54 -11
-108 -21 -364 -27 -463 -10 -271 47 -446 204 -551 490 -14 39 -28 84 -32 100
-4 17 -9 39 -12 50 -3 11 -9 45 -14 75 -6 30 -12 66 -14 80 -27 146 -27 697 0
740 2 3 6 23 9 45 20 126 99 343 171 470 43 75 158 204 182 205 6 0 13 4 15 8
5 13 90 58 143 77 57 21 186 42 230 39 17 -2 71 -5 120 -9z"/>
<path d="M1309 6926 c-2 -2 -26 -6 -54 -9 -54 -6 -88 -12 -150 -29 -22 -5 -42
-10 -45 -11 -3 0 -42 -15 -87 -33 -227 -89 -438 -261 -558 -454 -144 -233
-272 -577 -300 -809 -6 -43 -17 -154 -21 -191 -10 -123 -3 -568 11 -660 3 -19
7 -51 10 -70 5 -31 38 -189 49 -230 31 -119 187 -480 208 -480 4 0 8 -6 8 -12
0 -25 88 -144 160 -216 29 -28 153 -130 196 -160 28 -20 159 -87 202 -103 12
-5 32 -13 45 -18 24 -11 71 -25 74 -23 2 1 21 -5 43 -13 22 -8 43 -14 45 -14
3 1 24 -3 48 -7 66 -11 101 -13 267 -13 143 1 215 3 215 8 0 2 19 5 43 7 71 8
231 60 322 104 47 23 87 45 90 49 3 3 25 22 50 41 25 19 50 41 56 50 7 8 22
26 34 40 25 28 92 163 96 194 2 12 5 30 8 41 2 11 5 23 5 26 1 4 14 9 30 11
l30 4 0 -175 c2 -343 0 -372 -30 -506 -18 -82 -40 -140 -97 -256 -23 -48 -62
-113 -86 -146 -44 -60 -161 -156 -245 -200 -25 -14 -52 -30 -58 -35 -7 -6 -13
-8 -13 -5 0 3 -24 -4 -52 -17 -130 -56 -214 -69 -528 -81 -240 -9 -346 -14
-458 -20 -142 -7 -322 -15 -429 -19 -79 -3 -120 -17 -107 -37 3 -5 7 -37 9
-71 5 -84 16 -266 20 -353 2 -38 5 -89 6 -113 l3 -43 175 6 c297 10 386 13
671 19 467 11 456 10 731 71 131 29 430 158 491 213 10 8 18 11 18 6 0 -5 4
-4 8 1 4 6 32 26 62 46 98 65 185 145 243 222 31 41 57 78 57 81 0 3 14 25 30
50 30 43 140 258 140 271 0 4 7 21 15 38 16 36 74 229 80 267 3 14 7 36 10 50
3 14 7 41 10 60 2 19 7 53 11 75 8 45 12 3514 4 3516 -3 1 -143 2 -312 3 -268
1 -308 -1 -309 -14 0 -8 -2 -24 -4 -35 -2 -11 -7 -58 -10 -105 -3 -47 -8 -104
-11 -126 -2 -23 -7 -70 -9 -105 -3 -35 -8 -93 -11 -129 -4 -36 -7 -74 -8 -85
-1 -15 -9 -21 -33 -23 -41 -4 -41 -3 -86 195 -2 7 -22 50 -45 96 -40 79 -110
164 -187 226 -80 66 -278 139 -425 157 -50 6 -366 15 -371 10z m386 -591 c49
-3 92 -8 96 -10 3 -2 21 -7 40 -10 164 -28 358 -151 446 -285 89 -133 145
-308 160 -500 8 -97 8 -1020 0 -1085 -14 -117 -55 -204 -135 -283 -80 -79
-223 -150 -357 -176 -130 -25 -171 -29 -345 -29 -138 0 -178 4 -243 21 -80 22
-187 71 -214 97 -8 8 -18 15 -22 15 -12 0 -118 111 -146 153 -37 56 -79 143
-105 217 -12 36 -25 72 -28 80 -7 19 -6 17 -17 65 -4 22 -10 47 -12 55 -1 8
-5 31 -8 50 -3 19 -7 46 -10 60 -24 123 -25 670 -1 709 3 4 7 25 10 47 7 44
11 61 26 119 13 47 15 54 23 78 4 9 10 25 14 35 3 9 8 25 10 35 6 32 100 224
133 272 48 70 124 140 199 185 141 84 253 103 486 85z"/>
<path d="M8290 4308 c-97 -17 -174 -61 -251 -140 -46 -48 -111 -156 -115 -193
-2 -11 -7 -41 -12 -67 -17 -87 5 -214 52 -302 24 -46 98 -131 131 -152 139
-87 205 -104 342 -90 175 17 334 138 396 300 26 68 28 80 31 161 6 131 -42
254 -138 349 -71 70 -144 111 -238 132 -42 10 -152 11 -198 2z"/>
</g>
</svg>
